<svg width="88" height="88" viewBox="0 0 88 88" fill="none" xmlns="http://www.w3.org/2000/svg">
<rect x="0.429688" y="13.4707" width="74.7841" height="74.7841" rx="6.5986" transform="rotate(-9.99973 0.429688 13.4707)" fill="#113264"/>
<g clip-path="url(#clip0_70_4934)">
<path d="M56.6586 28.7318L62.5072 27.7005L63.1948 31.5996L61.2452 31.9434L65.0265 53.3884L66.9761 53.0446L67.6636 56.9437L24.7736 64.5064L24.0861 60.6073L26.0356 60.2635L22.2543 38.8185L20.3047 39.1623L19.6172 35.2632L25.4659 34.2319L24.7783 30.3328C24.6872 29.8158 24.8051 29.2837 25.1063 28.8536C25.4074 28.4235 25.8671 28.1307 26.3841 28.0395L53.6778 23.2269C54.1948 23.1357 54.7269 23.2537 55.157 23.5548C55.5871 23.856 55.8799 24.3156 55.9711 24.8327L56.6586 28.7318ZM57.3461 32.6309L26.1534 38.131L29.9347 59.576L35.7833 58.5448L33.377 44.8979L37.2761 44.2104L39.6824 57.8572L43.5815 57.1697L41.1752 43.5229L45.0743 42.8354L47.4806 56.4822L51.3797 55.7947L48.9734 42.1479L52.8725 41.4603L55.2788 55.1072L61.1274 54.0759L57.3461 32.6309ZM29.0212 31.5949L29.3649 33.5444L52.7595 29.4193L52.4157 27.4698L29.0212 31.5949Z" fill="#FCFCFC"/>
</g>
<defs>
<clipPath id="clip0_70_4934">
<rect width="52.7899" height="52.7899" fill="white" transform="translate(12.5469 21.7686) rotate(-10)"/>
</clipPath>
</defs>
</svg>
