<svg width="142" height="49" viewBox="0 0 142 49" fill="none" xmlns="http://www.w3.org/2000/svg">
<g clip-path="url(#clip0_717_790)">
<path d="M65.372 35.4503C71.6491 35.4503 75.1786 30.8501 75.1786 25.0772C75.1786 19.3043 71.6548 14.7324 65.372 14.7324V19.1797C68.7145 19.1797 69.9779 22.1426 69.9779 25.0772C69.9779 28.0402 68.7089 30.9748 65.372 30.9748V35.4503ZM55.5371 25.0772C55.5371 30.8501 59.0949 35.456 65.372 35.456V30.9748C62.0012 30.9748 60.7322 28.0402 60.7322 25.0772C60.7322 22.1426 62.0012 19.1797 65.372 19.1797V14.7324C59.0949 14.7324 55.5371 19.2986 55.5371 25.0772ZM83.5576 28.9013C84.4527 28.72 85.4441 28.5953 85.9993 28.2554C86.0899 31.0314 85.4441 32.3344 83.5576 32.4874V35.1444C84.515 34.8668 85.3818 34.3739 86.0956 33.6601C86.1296 34.1247 86.1862 34.5892 86.3732 35.0198H91.1377C90.5825 33.8754 90.5825 32.5497 90.5825 31.3147V24.9809C90.5825 20.9076 87.2457 20.1314 83.8408 20.1314C83.7502 20.1314 83.6539 20.1314 83.5632 20.1654V23.2247H83.7785C84.7359 23.2247 86.0673 23.6269 86.0673 24.7033C86.0673 25.5984 85.6027 25.876 84.7983 26.063C84.396 26.1253 83.9938 26.1876 83.5632 26.2499L83.5576 28.9013ZM81.1158 30.8785C81.1158 29.7341 82.0109 29.2695 83.0647 29.0259C83.2233 28.9919 83.4046 28.9636 83.5632 28.9013V26.2443C80.3793 26.7088 76.3853 26.9241 76.3853 31.0597C76.3853 34.0567 78.5495 35.4447 81.3028 35.4447C82.0789 35.4447 82.8211 35.3484 83.5632 35.1331V32.4761C83.4103 32.5101 83.2516 32.5101 83.0987 32.5101C82.0449 32.5157 81.1158 32.0512 81.1158 30.8785ZM83.5576 20.1654V23.2247C82.3509 23.287 81.6087 23.8705 81.3934 25.0149H76.9745C77.0368 23.1284 77.9319 21.8933 79.2293 21.1512C80.436 20.477 82.0109 20.1654 83.5576 20.1654ZM93.2395 35.0198H98.004V27.145C98.004 25.5418 98.7745 24.0575 100.57 24.0575C103.137 24.0575 102.921 26.063 102.921 28.0402V35.0198H107.686V25.7514C107.686 23.6496 107.284 20.1314 102.457 20.1314C100.723 20.1314 98.7745 21.0605 97.9134 22.5392H97.851V20.562H93.2452L93.2395 35.0198ZM117.3 23.7799C119.339 23.7799 120.116 25.6947 120.116 27.7965C120.116 29.6208 119.589 31.8132 117.3 31.8132H117.238V35.3257C118.41 35.0764 119.402 34.3966 120.116 33.3485H120.15V35.0141H124.693V14.7324H119.957L119.923 22.1426H119.861C119.181 21.2135 118.314 20.596 117.232 20.3184V23.7742L117.3 23.7799ZM117.238 31.8076C115.102 31.7792 114.394 29.6151 114.394 27.6379C114.394 25.8137 115.107 23.8082 117.238 23.7799V20.324C116.75 20.1994 116.252 20.1371 115.753 20.1371C111.64 20.1371 109.629 23.7175 109.629 27.485C109.629 31.53 111.578 35.4503 116.122 35.4503C116.49 35.4503 116.892 35.388 117.232 35.3257L117.238 31.8076ZM134.182 23.7799C136.381 23.7799 137.06 25.9723 137.06 27.8249C137.06 29.6491 136.381 31.8076 134.182 31.8076V35.4503C138.669 35.4163 141.825 32.1475 141.825 27.8192C141.825 23.4626 138.669 20.1598 134.188 20.1314L134.182 23.7799ZM131.31 27.8249C131.31 25.9723 131.962 23.7799 134.188 23.7799V20.1371C129.701 20.1371 126.58 23.4739 126.58 27.8249C126.58 32.1475 129.701 35.456 134.188 35.456V31.8132C131.956 31.8076 131.31 29.6434 131.31 27.8249Z" fill="#371071"/>
<path d="M22.067 0.82373C35.8336 0.82373 43.9406 9.76353 43.9406 24.6859C43.9406 39.6932 35.8336 48.633 22.067 48.633C8.30037 48.633 0.193359 39.6932 0.193359 24.6859C0.193359 9.76353 8.30037 0.82373 22.067 0.82373Z" fill="#F5D400"/>
<path d="M22.0686 45.9364C10.3301 45.9364 5.59961 35.6483 5.59961 24.686C5.59961 13.7237 10.3301 3.43555 22.0686 3.43555C33.807 3.43555 38.5375 13.7237 38.5375 24.686C38.5375 35.6483 33.807 45.9364 22.0686 45.9364Z" fill="#F2B300"/>
<path d="M30.9361 15.8316C36.7656 21.6498 39.8872 29.7455 33.4685 36.1529C27.0497 42.481 18.9427 39.3595 13.2038 33.6262C7.3742 27.808 4.25263 19.7123 10.6714 13.3049C16.9995 6.89744 25.1971 10.0133 30.9361 15.8316Z" fill="#E86E18"/>
<path d="M15.8188 18.5338C20.0394 14.3188 25.699 12.2963 30.0896 16.6756C34.5652 21.0605 32.452 26.7088 28.3164 30.9237C24.0958 35.0537 18.4361 37.1612 14.0456 32.7819C9.56999 28.312 11.6775 22.6637 15.8188 18.5338Z" fill="#D30021"/>
<path d="M22.0676 30.4196C18.4361 30.4196 14.8047 28.8164 14.8047 24.6864C14.8047 20.6414 18.4361 19.0381 22.0676 19.0381C25.699 19.0381 29.3305 20.6414 29.3305 24.6864C29.3305 28.822 25.699 30.4196 22.0676 30.4196Z" fill="#371071"/>
</g>
<defs>
<clipPath id="clip0_717_790">
<rect width="141.632" height="47.8092" fill="white" transform="translate(0.193359 0.82373)"/>
</clipPath>
</defs>
</svg>
