<svg width="65" height="65" viewBox="0 0 65 65" fill="none" xmlns="http://www.w3.org/2000/svg">
<g clip-path="url(#clip0_717_777)">
<path fill-rule="evenodd" clip-rule="evenodd" d="M29.5339 45.3605H17.9527L16.8786 36.7669L9.82912 31.6645C9.52733 30.1539 9.39258 28.6097 9.39258 27.0991C9.39258 14.4771 19.6309 4.23877 32.2193 4.23877C44.841 4.23877 55.0797 14.4771 55.0797 27.0991C55.0797 28.61 54.912 30.1539 54.6099 31.6645L47.594 36.7665L46.5196 45.3602H34.9048L34.2333 45.83C33.6627 46.2666 32.9577 46.5021 32.2193 46.5021C31.5143 46.5021 30.8096 46.2669 30.205 45.83L29.5339 45.3605ZM29.9032 41.3658H21.4772L20.6381 34.5516L13.6894 29.5161C13.49 28.7259 13.3885 27.9141 13.3873 27.0991C13.3873 25.7226 13.6561 24.3801 14.2264 23.138L26.5127 35.5587L14.5622 20.7883C15.0323 18.8748 16.0727 17.1629 17.5497 15.8536L28.2582 34.3499L18.7585 14.1081C20.0003 12.4635 21.7125 11.2547 23.6593 10.6504L30.205 33.6116L25.4387 9.71047C26.8959 8.89748 28.5366 8.47007 30.2053 8.46873C30.5411 8.46873 30.9104 8.46873 31.2461 8.53594L32.2197 33.3767L33.1932 8.53594C33.5622 8.46873 33.8983 8.46873 34.2676 8.46873C35.9462 8.46873 37.5573 8.90494 39.0343 9.71047L34.2337 33.6116L40.7797 10.6504C42.7605 11.2543 44.4724 12.4631 45.6808 14.1081L36.1805 34.3499L46.889 15.8536C48.3659 17.1629 49.4064 18.8748 49.8768 20.7883L37.9259 35.5587L50.2458 23.138C50.7825 24.3801 51.0846 25.7226 51.0846 27.0991C51.0846 27.9047 50.9838 28.7105 50.7825 29.5161L43.8342 34.5512L42.9614 41.3655H34.5355L33.2937 42.2722C32.9916 42.5074 32.6223 42.6082 32.2193 42.6082C31.85 42.6082 31.4474 42.5074 31.145 42.2722L29.9032 41.3658Z" fill="#CC2229"/>
<path fill-rule="evenodd" clip-rule="evenodd" d="M29.9026 41.3658H21.4767L20.6375 34.5516L13.6888 29.5161C13.4894 28.7259 13.3879 27.9141 13.3867 27.0991C13.3867 25.7227 13.6556 24.3801 14.2259 23.138L26.5121 35.5587L14.5616 20.7883C15.0317 18.8748 16.0722 17.1629 17.5491 15.8536L28.2576 34.3499L18.7579 14.1081C19.9997 12.4635 21.7119 11.2547 23.6587 10.6504L30.2044 33.6116L25.4381 9.71049C26.8954 8.8975 28.5361 8.47008 30.2048 8.46875C30.5405 8.46875 30.9098 8.46875 31.2455 8.53596L32.2191 33.3767L33.1926 8.53596C33.5616 8.46875 33.8977 8.46875 34.267 8.46875C35.9456 8.46875 37.5567 8.90496 39.0337 9.71049L34.2331 33.6116L40.7792 10.6504C42.7599 11.2543 44.4718 12.4631 45.6802 14.1081L36.1799 34.3499L46.8884 15.8536C48.3653 17.1629 49.4058 18.8748 49.8763 20.7883L37.9254 35.5587L50.2453 23.138C50.7819 24.3801 51.0841 25.7227 51.0841 27.0991C51.0841 27.9047 50.9832 28.7105 50.7819 29.5161L43.8336 34.5512L42.9609 41.3655H34.5349L33.2931 42.2722C32.991 42.5074 32.6217 42.6082 32.2188 42.6082C31.8494 42.6082 31.4468 42.5074 31.1444 42.2722L29.9026 41.3658Z" fill="#F6D330"/>
<path fill-rule="evenodd" clip-rule="evenodd" d="M51.9587 59.6276V49.9259H55.0807V59.6276H51.9587ZM46.0511 59.6276V49.9259H49.1728V59.6276H46.0511ZM44.138 56.5056H36.8868V56.64C36.8868 56.7409 36.8868 56.8413 36.9201 56.9422C36.9201 57.043 36.954 57.1435 36.9876 57.2436C37.0209 57.3444 37.0885 57.4788 37.189 57.5797C37.2558 57.6805 37.3234 57.781 37.4235 57.8818C37.5243 57.9826 37.6588 58.0495 37.7932 58.1164C37.9269 58.1839 38.0617 58.2508 38.2294 58.3177C38.3638 58.3516 38.4979 58.3852 38.6323 58.3852C38.8 58.4185 38.9344 58.4185 39.0689 58.4185H39.1021C39.2029 58.4185 39.3374 58.4185 39.4711 58.3852C39.6055 58.3852 39.7403 58.3513 39.8408 58.3177C39.9745 58.2844 40.1093 58.2508 40.2098 58.1839C40.3106 58.15 40.4111 58.0831 40.5119 58.0155C40.5452 57.9487 40.6127 57.8818 40.6796 57.8146C40.7135 57.747 40.7804 57.6801 40.814 57.5793V57.5454C40.814 57.5121 40.8473 57.5121 40.8473 57.4785H43.936C43.9021 57.5124 43.9021 57.5793 43.8685 57.6129C43.8685 57.6129 43.8685 57.6462 43.8352 57.6798C43.7928 57.798 43.7363 57.9106 43.6668 58.0152C43.566 58.1496 43.4655 58.2504 43.3647 58.3849C43.2309 58.5526 43.0626 58.687 42.8949 58.8211C42.7272 58.9555 42.5259 59.0563 42.3582 59.1907C42.0897 59.3245 41.8545 59.4253 41.5863 59.5261C41.2842 59.6269 40.982 59.6938 40.6796 59.7614C40.4111 59.7946 40.1429 59.8622 39.8408 59.8622C39.5716 59.8954 39.3034 59.8954 39.0349 59.8954H38.968C38.6659 59.8954 38.3299 59.8954 38.0278 59.8622C37.7592 59.8282 37.4571 59.7614 37.189 59.7277C36.786 59.6269 36.417 59.4925 36.081 59.3588C35.7451 59.1886 35.42 58.998 35.1074 58.7881C34.8784 58.5925 34.6653 58.3791 34.4699 58.15C34.3015 57.9487 34.1338 57.6801 34.0334 57.4116C33.9325 57.2103 33.8657 56.9751 33.7988 56.7402C33.7649 56.505 33.7312 56.2697 33.7312 56.0012C33.7312 55.7666 33.7652 55.4975 33.7988 55.2293C33.8657 54.9947 33.9325 54.7595 34.0334 54.5242C34.1678 54.2557 34.3355 54.0211 34.5371 53.7859C34.7384 53.5174 34.9733 53.3161 35.2422 53.1145C35.4952 52.9228 35.7649 52.7542 36.048 52.6107C36.3422 52.4785 36.6448 52.3662 36.954 52.2747C37.2562 52.2078 37.5583 52.1409 37.8607 52.107C38.1961 52.073 38.5322 52.0401 38.8343 52.0401H38.9687C39.3041 52.0401 39.6402 52.0734 39.9752 52.107C40.3113 52.1738 40.6467 52.2414 40.9488 52.3083C41.2848 52.4091 41.6538 52.5435 41.9559 52.7112C42.258 52.8789 42.5602 53.0466 42.8287 53.2818C43.0633 53.4831 43.2985 53.7184 43.5001 54.0208C43.6678 54.2893 43.8022 54.5575 43.9031 54.8929C43.9699 55.0949 44.0375 55.2965 44.0707 55.5311C44.1047 55.7663 44.1383 56.0009 44.1383 56.2694V56.3369L44.138 56.5056ZM41.1497 55.0622H36.9198V54.9614C36.9198 54.9275 36.9198 54.9275 36.9537 54.8939C36.9537 54.827 36.9876 54.7601 36.9876 54.6929C37.0209 54.5914 37.0545 54.5246 37.0885 54.4577C37.1553 54.3908 37.1893 54.29 37.2562 54.2224C37.3237 54.1223 37.4239 54.0547 37.4914 53.9879C37.5922 53.8871 37.726 53.8202 37.8604 53.7526C37.9612 53.6858 38.095 53.6189 38.2294 53.5849L38.6323 53.4841H39.0689C39.2366 53.4841 39.4042 53.4841 39.5387 53.5181C39.7064 53.5513 39.8408 53.5849 39.9749 53.6518C40.1093 53.6858 40.2101 53.7194 40.3109 53.7862C40.4447 53.8531 40.5455 53.9539 40.613 54.0215C40.7139 54.0884 40.7468 54.1552 40.8143 54.2224C40.8812 54.29 40.9152 54.3569 40.982 54.4577C41.0153 54.5246 41.0489 54.5914 41.0829 54.6929C41.1161 54.7598 41.1161 54.8606 41.1497 54.9275V55.0622ZM25.4061 49.9259V53.1823L25.5405 53.0479C25.5741 53.0479 25.5741 53.0146 25.6077 53.0146C25.7418 52.9138 25.8762 52.8133 26.0103 52.7461C26.1825 52.6434 26.362 52.5535 26.5473 52.477C26.7826 52.3761 26.9839 52.3093 27.1852 52.2424C27.3865 52.1748 27.5881 52.1416 27.823 52.108C27.9907 52.074 28.1923 52.0411 28.3936 52.0071H28.9979C29.1992 52.0071 29.4344 52.0411 29.6357 52.074C29.837 52.108 30.0386 52.1748 30.2399 52.2424C30.4409 52.3093 30.6761 52.4101 30.8438 52.5445C31.0451 52.6783 31.2468 52.8466 31.4145 53.0143C31.5489 53.182 31.683 53.3833 31.7838 53.551C31.8846 53.7194 31.9515 53.9207 31.9848 54.0884C32.0187 54.256 32.052 54.4237 32.052 54.5914C32.0856 54.7934 32.0856 55.028 32.0856 55.2296V59.6273H29.0644V55.5989C29.0644 55.4652 29.0308 55.2975 29.0308 55.1627V54.9275C29.0308 54.8267 28.9972 54.6929 28.9303 54.5914L28.729 54.29C28.6282 54.1892 28.5274 54.1223 28.4266 54.0547C28.3261 53.9879 28.2253 53.921 28.0909 53.8871C27.99 53.8531 27.8556 53.8202 27.7551 53.8202C27.6207 53.7862 27.5202 53.7862 27.4194 53.7862H27.3522C27.2514 53.7862 27.1173 53.8202 26.9829 53.8202C26.8821 53.8534 26.7816 53.8871 26.6808 53.921C26.5463 53.9543 26.4122 54.0218 26.3114 54.0887C26.1773 54.1895 26.0765 54.29 25.9421 54.3908L25.64 54.7937C25.5728 54.9275 25.5056 55.0622 25.472 55.2299C25.4384 55.3308 25.4384 55.4312 25.4384 55.4984C25.4047 55.6329 25.4047 55.7676 25.4047 55.9014V59.6276H22.2831V49.9259H25.4061ZM20.1357 52.8469H16.9132V52.7461V52.6786C16.9132 52.5778 16.9132 52.4773 16.8796 52.4101C16.846 52.3093 16.8124 52.2424 16.7788 52.1416C16.7396 52.0601 16.6947 51.9814 16.6444 51.9063C16.5772 51.8395 16.5099 51.7719 16.4095 51.705C16.3331 51.6303 16.2413 51.5731 16.1406 51.5373C16.0401 51.4705 15.9393 51.4365 15.8385 51.4029L15.4356 51.3021C15.3015 51.2688 15.1671 51.2688 15.033 51.2688H14.6633C14.5292 51.2688 14.4284 51.3021 14.294 51.3357C14.1596 51.3357 14.0587 51.3696 13.9247 51.4365C13.8242 51.4705 13.7234 51.5373 13.5889 51.5709C13.5217 51.6378 13.4212 51.7047 13.354 51.7719C13.2532 51.8394 13.1863 51.9063 13.1527 52.0071C13.0855 52.074 13.0519 52.1748 13.0183 52.2424C12.9847 52.3425 12.9511 52.4437 12.9511 52.5445C12.9511 52.6114 12.9847 52.7122 13.0183 52.813C13.0183 52.8799 13.0855 52.9807 13.1191 53.0476L13.3544 53.2828C13.4552 53.3168 13.5557 53.3836 13.6565 53.4172C13.7573 53.4505 13.8578 53.4841 13.9583 53.4841C14.1263 53.5181 14.2604 53.551 14.4284 53.551C14.6297 53.5849 14.8649 53.5849 15.0662 53.6185C15.2675 53.6185 15.5028 53.6518 15.7041 53.6518C16.0398 53.6858 16.4091 53.6858 16.7445 53.7194C16.9122 53.7194 17.0466 53.7526 17.1811 53.7526C17.4832 53.7866 17.8189 53.8202 18.121 53.8871C18.3895 53.9539 18.6248 54.0215 18.8933 54.1223C19.1691 54.226 19.4205 54.3857 19.6316 54.5914C19.8668 54.7598 20.0345 54.995 20.1686 55.2296C20.2694 55.3973 20.3363 55.5986 20.3699 55.767C20.4035 55.9679 20.4371 56.1692 20.4371 56.4045C20.4371 56.6058 20.4035 56.841 20.3699 57.0426C20.3363 57.2436 20.2355 57.4449 20.1686 57.6133C20.0345 57.8478 19.9001 58.0831 19.7321 58.2508C19.5644 58.4521 19.3964 58.5868 19.1951 58.7206C18.8929 58.9219 18.5912 59.0902 18.2551 59.2243C17.9194 59.3588 17.5504 59.4596 17.1811 59.5604C16.8117 59.6273 16.4424 59.6612 16.0731 59.7281C15.6705 59.762 15.2675 59.762 14.8646 59.795H14.7305C14.3948 59.795 14.0587 59.7617 13.7234 59.7617C13.354 59.7277 12.9847 59.6941 12.6154 59.6273C12.2872 59.5649 11.9623 59.4864 11.6418 59.392C11.3397 59.3252 11.0712 59.1911 10.8027 59.0566C10.6118 58.9646 10.4316 58.8519 10.2653 58.7206C10.0976 58.5529 9.96321 58.3852 9.82878 58.2168C9.76157 58.0831 9.69469 57.9823 9.62748 57.8478C9.56736 57.6961 9.52244 57.5387 9.49339 57.378C9.45979 57.2772 9.42618 57.1767 9.42618 57.0759C9.39258 56.9422 9.39258 56.8413 9.39258 56.7069V56.673V56.5722H12.6154V56.8074C12.6154 56.8743 12.649 56.9751 12.649 57.0759L12.7495 57.2772C12.8167 57.378 12.8839 57.4449 12.9508 57.5457C13.018 57.6133 13.1185 57.6801 13.186 57.747C13.3201 57.8146 13.4209 57.8814 13.5553 57.9483C13.6894 57.9823 13.8574 58.0491 13.9915 58.0827C14.126 58.116 14.2937 58.1496 14.4617 58.1836C14.5958 58.1836 14.7638 58.2168 14.9318 58.2168C15.0995 58.2168 15.2336 58.1836 15.368 58.1836C15.5357 58.1836 15.6701 58.1496 15.8382 58.116C15.9723 58.0827 16.1067 58.0491 16.2411 57.9823C16.3416 57.9483 16.4424 57.9154 16.5432 57.8478C16.644 57.8146 16.7445 57.747 16.8117 57.6801C16.8789 57.5793 16.9458 57.5124 17.013 57.4116C17.0466 57.3108 17.0802 57.2433 17.1138 57.1431C17.1475 57.0423 17.1475 56.9418 17.1475 56.841C17.1475 56.7735 17.1475 56.6726 17.1138 56.5718C17.1138 56.5049 17.0802 56.4381 17.013 56.3705C16.9545 56.2853 16.8871 56.2067 16.8117 56.136C16.7109 56.0684 16.6104 56.0351 16.476 56.0015C16.3752 55.9676 16.2411 55.9347 16.1067 55.9007C15.939 55.9007 15.8046 55.8674 15.6365 55.8674L14.1596 55.7666C13.8911 55.7327 13.5889 55.7327 13.2868 55.6991C13.018 55.6658 12.7162 55.6322 12.4137 55.5983C12.1219 55.5352 11.831 55.4681 11.541 55.397C11.3397 55.3301 11.1384 55.2632 10.9368 55.1624C10.7691 55.0616 10.601 54.9611 10.4666 54.8263C10.2989 54.6586 10.1645 54.4573 10.064 54.2897C9.9296 54.0884 9.86272 53.8867 9.79551 53.6515C9.76191 53.4502 9.7283 53.2153 9.7283 53.014C9.7283 52.7455 9.7283 52.5102 9.79551 52.242C9.86272 52.0407 9.9296 51.8055 10.064 51.6378C10.1981 51.3693 10.3997 51.1341 10.6346 50.8988C10.8696 50.6979 11.1045 50.5298 11.4066 50.3957C11.6751 50.2613 11.9772 50.1605 12.2457 50.0597C12.5742 49.9604 12.9115 49.893 13.2529 49.8584C13.5504 49.7919 13.8543 49.758 14.1592 49.7576C14.4617 49.7236 14.7302 49.7236 15.0323 49.7236H15.1664C15.5021 49.7236 15.8378 49.7576 16.1732 49.7576C16.4753 49.7915 16.8111 49.8584 17.1132 49.892C17.4153 49.9589 17.751 50.0597 18.0195 50.1605C18.288 50.2613 18.5566 50.3618 18.8254 50.5295C18.9931 50.6303 19.1611 50.7308 19.2952 50.8656C19.4629 51 19.5637 51.1677 19.6645 51.3354C19.7654 51.4362 19.8322 51.5706 19.8658 51.7044C19.933 51.8388 19.9663 51.9729 20.0335 52.1073C20.0335 52.2081 20.0671 52.275 20.0671 52.3758C20.1007 52.4766 20.1007 52.5442 20.1343 52.645V52.7119L20.1357 52.8469Z" fill="#CC2229"/>
</g>
<defs>
<clipPath id="clip0_717_777">
<rect width="64.1352" height="64.1352" fill="white" transform="translate(0.169922)"/>
</clipPath>
</defs>
</svg>
