<svg width="44" height="54" viewBox="0 0 44 54" fill="none" xmlns="http://www.w3.org/2000/svg">
<path fill-rule="evenodd" clip-rule="evenodd" d="M13.5003 47.1914C12.0955 47.1914 11.0168 47.4763 10.2635 48.0462C9.51019 48.6162 9.12356 49.4304 9.12356 50.4685C9.12356 51.5069 9.51019 52.3008 10.2635 52.8708C11.0168 53.4407 12.0955 53.7259 13.5003 53.7259C14.8844 53.7259 15.9634 53.4407 16.737 52.8708C17.4903 52.3008 17.8769 51.5069 17.8769 50.4685C17.8769 49.4304 17.49 48.6162 16.737 48.0462C15.9631 47.4766 14.8844 47.1914 13.5003 47.1914ZM13.5003 52.2196C11.9734 52.2196 11.1998 51.6294 11.1998 50.4688C11.1998 49.2883 11.9734 48.698 13.5003 48.698C15.0268 48.698 15.8004 49.2883 15.8004 50.4688C15.8004 51.629 15.0265 52.2196 13.5003 52.2196ZM26.0401 47.3545H18.4469V48.7386H21.0934V53.0747C21.0934 53.4614 21.4801 53.6447 22.233 53.6447C23.0272 53.6447 23.4139 53.4614 23.4139 53.0747V48.7386H26.0401V47.3545ZM36.157 47.802V50.754C36.157 51.9142 36.5237 52.6878 37.2566 53.1153C37.8466 53.4614 39.1905 53.6041 41.3279 53.5835H43.2617V52.1381H40.0659C39.435 52.1381 39.0071 52.0363 38.7426 51.8124C38.5183 51.629 38.3962 51.3036 38.3962 50.8558V47.802C38.3962 47.4357 38.0296 47.2527 37.2766 47.2527C36.5237 47.2527 36.157 47.436 36.157 47.802ZM4.03416 46.9878V51.67C4.03416 52.2193 4.25808 52.6878 4.70594 53.0338C5.15379 53.3798 5.76467 53.5835 6.53793 53.6447V46.9878H10.0801V45.4609H0.878906V46.9878H4.03416ZM27.7699 49.5937C26.6709 50.9982 26.0191 52.2399 25.7955 53.3393L25.7343 53.5835H27.8105L27.8308 53.4208C27.933 53.0338 28.0551 52.6472 28.2384 52.2605H32.7575C32.9408 52.6472 33.063 53.0338 33.1644 53.4208L33.2054 53.5835H35.2616L35.2004 53.3393C34.9768 52.2399 34.325 50.9982 33.2054 49.5937C32.3912 48.535 31.7191 47.8226 31.1701 47.436C31.027 47.3342 30.8034 47.273 30.498 47.2527C30.1925 47.273 29.9683 47.3342 29.8258 47.436C29.2971 47.802 28.6051 48.5147 27.7699 49.5937ZM28.9508 50.937C29.4063 50.2653 29.9244 49.6382 30.498 49.064C31.0879 49.6546 31.5976 50.2652 32.0245 50.937H28.9508Z" fill="#CD352C"/>
<path fill-rule="evenodd" clip-rule="evenodd" d="M37.6424 20.7275C36.3191 22.2338 34.2222 23.4146 31.3525 24.2698C28.5023 25.1452 25.6116 25.4709 22.7009 25.247C20.8889 25.1046 18.6902 24.6567 16.1049 23.9034C13.3772 23.0689 11.2394 22.1932 9.71289 21.2569C13.2551 24.6564 17.2042 26.9975 21.54 28.3004C24.2072 29.0943 26.8324 29.4606 29.4586 29.42C32.0645 29.3791 34.161 28.9313 35.7694 28.0965C36.9094 27.3229 37.6424 26.2848 37.9887 24.9618C38.2935 23.7201 38.192 22.3762 37.7235 20.9515L37.6424 20.7275Z" fill="#E19439"/>
<path fill-rule="evenodd" clip-rule="evenodd" d="M35.4026 17.9794C34.7514 21.2162 33.5909 24.2899 31.9219 27.2212C30.2323 30.1732 28.3594 32.4124 26.2832 33.9796C24.4102 35.3843 22.4764 36.3409 20.4608 36.85C18.6085 37.3182 16.8374 37.3993 15.1069 37.0739C13.4782 36.7685 12.0737 36.1376 10.8929 35.1807C9.69172 34.2448 8.87754 33.1045 8.42969 31.7609C9.22357 32.9212 10.3026 33.6948 11.7074 34.102C13.0915 34.5093 14.4757 34.4687 15.8805 34.0002C19.2393 32.6566 22.1707 29.2369 24.6335 23.7609C25.5782 21.645 26.3609 19.4604 26.9749 17.2261C27.5246 15.2514 27.8703 13.5824 28.0127 12.1982C28.3384 8.14729 27.7891 5.23626 26.364 3.50574C24.4711 1.49042 21.8246 1.02227 18.4657 2.06038C19.7887 0.981343 21.6007 0.431678 23.9211 0.411381C26.3231 0.370456 28.4812 0.899825 30.3744 2.01945C32.8782 3.50541 34.5268 5.74467 35.3413 8.75751C36.0747 11.445 36.0946 14.5187 35.4026 17.9794Z" fill="#2F489A"/>
<path fill-rule="evenodd" clip-rule="evenodd" d="M23.4119 13.5822C19.9309 12.4626 16.4702 12.0554 13.0501 12.3814C9.89486 12.6865 7.55379 13.5214 6.00661 14.8446C4.76487 16.2491 4.80546 18.0202 6.16931 20.1982C6.31205 20.4424 6.61716 20.829 7.06501 21.3584C7.98101 19.2413 10.546 17.3484 14.7803 15.6791C16.409 15.0276 18.078 14.4982 19.7675 14.1116C21.3354 13.7449 22.5365 13.5619 23.4119 13.5822Z" fill="#E19439"/>
<path fill-rule="evenodd" clip-rule="evenodd" d="M4.66288 24.29C5.21255 26.1017 6.23003 27.7913 7.69569 29.3179C9.08017 30.7636 10.7698 31.9644 12.7648 32.9619C14.7117 33.9261 16.79 34.5983 18.9329 34.9566C21.1518 35.3436 23.2693 35.3842 25.2843 35.0787C27.5439 34.7327 29.7013 33.9594 31.7166 32.7579C32.796 32.1065 33.9559 31.2311 35.1979 30.1317C32.7704 30.817 30.2454 31.0922 27.7272 30.9459C24.2253 30.7672 20.7781 30.0035 17.5284 28.6864C13.396 27.0171 9.95591 24.6151 7.18728 21.4802L7.06517 21.358C6.61732 20.8287 6.31188 20.442 6.16947 20.1978C4.80562 18.0198 4.76503 16.2487 6.00677 14.8442C5.76112 15.0677 5.53627 15.3131 5.33499 15.5772C4.5614 16.5748 4.11388 17.8368 4.01174 19.3836C3.90959 20.9109 4.11322 22.5396 4.66288 24.29Z" fill="#4FA6E0"/>
<path fill-rule="evenodd" clip-rule="evenodd" d="M40.0644 16.9008C39.7793 14.7024 39.026 12.6868 37.8049 10.8751C36.4407 8.81915 34.5678 7.14985 32.1861 5.84689C29.7232 4.50334 26.934 3.66886 23.84 3.32282C19.6053 2.85468 15.6565 3.54675 11.9719 5.39904C10.5265 6.13204 9.18299 7.17015 7.96155 8.534C6.63829 10.02 5.60019 11.6893 4.86719 13.5825C5.45745 12.6053 6.25167 11.8317 7.28977 11.2414C8.4297 10.6106 9.93629 10.183 11.7886 9.91814C13.7633 9.65363 15.9616 9.69422 18.4248 10.02C20.9898 10.3457 23.5345 10.9563 26.0586 11.8523C29.2957 13.0328 32.0028 14.5191 34.2014 16.3102C35.9319 17.7961 37.0719 19.2618 37.6418 20.7275L37.723 20.9514C38.1915 22.3765 38.293 23.72 37.9882 24.9617C37.6418 26.2847 36.9088 27.3228 35.7689 28.0964L36.3798 27.7503L36.4001 27.73C36.6238 27.5852 36.8348 27.4217 37.0309 27.2413L37.3161 26.9764C38.3539 25.918 39.1278 24.4929 39.6369 22.7015C40.1865 20.8296 40.3289 18.8958 40.0644 16.9008Z" fill="#CD352C"/>
</svg>
