<svg width="75" height="76" viewBox="0 0 75 76" fill="none" xmlns="http://www.w3.org/2000/svg">
<rect x="0.207031" y="0.847168" width="74.7841" height="74.7841" rx="6.5986" fill="#113264"/>
<path d="M37.8726 58.4244C26.9391 58.4244 18.0763 49.5617 18.0763 38.6283C18.0762 27.6948 26.9389 18.832 37.8724 18.8319C48.8058 18.8319 57.6687 27.6946 57.6687 38.6281C57.6688 49.5615 48.806 58.4243 37.8726 58.4244ZM33.3392 53.8059C31.3861 49.6632 30.2547 45.1812 30.0075 40.6078L22.1583 40.6079C22.5435 43.6543 23.8052 46.5233 25.79 48.8662C27.7749 51.2092 30.3975 52.9253 33.3392 53.8059ZM33.9726 40.6078C34.2716 45.4361 35.6514 49.9714 37.8726 53.9742C40.1537 49.8656 41.4862 45.2984 41.7723 40.6078L33.9726 40.6078ZM53.5867 40.6077L45.7375 40.6077C45.4904 45.1811 44.3589 49.6632 42.4059 53.8059C45.3476 52.9252 47.9702 51.2091 49.955 48.8661C51.9399 46.5231 53.2015 43.6541 53.5867 40.6077ZM22.1582 36.6486L30.0074 36.6486C30.2546 32.0752 31.386 27.5932 33.3391 23.4504C30.3974 24.3311 27.7748 26.0472 25.7899 28.3902C23.8051 30.7332 22.5434 33.6022 22.1582 36.6486ZM33.9746 36.6486L41.7703 36.6485C41.4848 31.958 40.1529 27.3909 37.8724 23.2821C35.5913 27.3907 34.2588 31.9579 33.9726 36.6486L33.9746 36.6486ZM42.4057 23.4504C44.3588 27.5931 45.4903 32.0751 45.7375 36.6485L53.5867 36.6485C53.2015 33.602 51.9398 30.733 49.9549 28.3901C47.9701 26.0471 45.3474 24.3311 42.4057 23.4504Z" fill="#FCFCFC"/>
</svg>
